<?xml version="1.0" encoding="utf-8"?>
<!-- Uploaded to: SVG Repo, www.svgrepo.com, Generator: SVG Repo Mixer Tools -->
<svg width="800px" height="800px" viewBox="-146.07 0 469.603 469.603" xmlns="http://www.w3.org/2000/svg"><defs><style>.a{fill:#ffffff;}.b{fill:#211715;}.c{fill:#f2635f;}.d{fill:#645d5c;}</style></defs><path class="a" d="M21.218,304.205a58.814,58.814,0,0,0-7.271-2.18,11.733,11.733,0,0,0-7.817,1.246c-3.193,1.659-4.5,7.386-3.282,10.773a17.277,17.277,0,0,0,5.722,8.249,71.742,71.742,0,0,0,21.959,11.223"/><path class="a" d="M175.061,427.092a43.7,43.7,0,0,1-9.453-9.926c-2.788-3.948-5.773-8.022-6.54-12.794a33.528,33.528,0,0,1,.062-7.818c1.414-18.782,2.239-41.22-.273-47.338-3.971-9.67-6.2-29.176-7.089-39.416a19.07,19.07,0,0,0-2.663-6.285q-.637-1-1.213-2.06c-3.618-6.645-5.567-14.987-7.054-22.252a27.214,27.214,0,0,0-1.986-7.066c-1.119-2.186-3.171-4.079-5.621-4.239-3.713-.243-6.477,3.347-8.023,6.733L46.2,401.97c12.2,15.817,19.585,23.218,41.848,37.809,3.031,1.986,14.077,8.065,16.851,10.448,6.44,5.532,9.847,10.665,13.634,17.016"/><path class="a" d="M23.355,268.5a58.737,58.737,0,0,0-6.874-3.218,11.739,11.739,0,0,0-7.916.091c-3.4,1.176-6.093,6.934-5.383,10.462a18.966,18.966,0,0,0,4.681,9.431c6.318,6.671,15.913,11.642,20.426,13.589Z"/><path class="b" d="M24.567,266.424a53.681,53.681,0,0,0-7.628-3.529,13.5,13.5,0,0,0-7.682-.22c-4.339,1.012-7.171,4.821-8.206,9.019-1.13,4.582.8,9.692,3.543,13.364C7.536,289,11.71,292.1,15.785,294.781a74.711,74.711,0,0,0,11.293,6.144,2.479,2.479,0,0,0,3.283-.861,2.417,2.417,0,0,0-.861-3.284,64.462,64.462,0,0,1-18.128-11.426c-2.915-2.7-5.365-6.363-5.87-10.054-.349-2.546,1.257-6.3,3.541-7.528a9.264,9.264,0,0,1,6.07-.441,35.437,35.437,0,0,1,7.031,3.238c2.689,1.53,5.11-2.616,2.423-4.145Z"/><path class="b" d="M21.856,301.891a46.92,46.92,0,0,0-7.647-2.267,13.531,13.531,0,0,0-7.645.836,9.167,9.167,0,0,0-4.853,4.018,13.842,13.842,0,0,0-1.694,6.059c-.245,4.352,2.17,8.854,5.133,11.906,3.358,3.457,7.943,6.02,12.187,8.22a64.531,64.531,0,0,0,12.554,5.167c2.985.811,4.258-3.818,1.276-4.629a63,63,0,0,1-19.775-9.769A15.816,15.816,0,0,1,5,312.881c-.6-2.24.1-6.029,1.992-7.333a8.871,8.871,0,0,1,5.942-1.3,39.3,39.3,0,0,1,7.647,2.266,2.417,2.417,0,0,0,2.952-1.676,2.455,2.455,0,0,0-1.676-2.952Z"/><path class="b" d="M147.032,304.726a17.123,17.123,0,0,1,2.293,4.987c.126.493.063.22.043.087.026.169.03.349.046.52q.054.612.11,1.223.13,1.4.272,2.8.636,6.274,1.522,12.521c1.124,7.886,2.559,15.7,5.307,23.2a24.728,24.728,0,0,1,1.216,7.668c.268,4.242.268,8.5.195,12.749-.082,4.874-.287,9.745-.555,14.612-.291,5.279-.937,10.587-1.023,15.871-.1,6.276,2.83,11.389,6.337,16.366a49.77,49.77,0,0,0,11.055,11.835,2.417,2.417,0,0,0,3.283-.861,2.456,2.456,0,0,0-.861-3.284,42.281,42.281,0,0,1-9.209-9.937c-2.859-4.052-5.744-8.245-5.806-13.386-.033-2.689.3-5.388.486-8.068q.27-3.837.49-7.678c.278-4.888.492-9.78.589-14.674.083-4.207.1-8.422-.127-12.625a41.374,41.374,0,0,0-1.162-9c-.381-1.347-.979-2.631-1.41-3.964-.575-1.78-1.057-3.588-1.491-5.407-1-4.18-1.746-8.42-2.389-12.668-.666-4.407-1.2-8.833-1.647-13.266a45.15,45.15,0,0,0-.643-5.908,20.416,20.416,0,0,0-2.776-6.133c-1.679-2.58-5.836-.177-4.145,2.422Z"/><path class="b" d="M120.6,466.032c-3.885-6.506-8.269-12.806-14.184-17.648-4.192-3.433-9.226-5.938-13.876-8.681A197.032,197.032,0,0,1,75.483,428.2a121.971,121.971,0,0,1-13.917-11.9,162.964,162.964,0,0,1-13.3-15.538,2.481,2.481,0,0,0-3.283-.861,2.415,2.415,0,0,0-.861,3.284c3.84,4.974,7.754,9.9,12.075,14.474a117.63,117.63,0,0,0,13.377,12.037,204.241,204.241,0,0,0,18.2,12.753c4.655,2.862,9.506,5.419,14.038,8.479q.371.249.737.508c.164.117.7.528.28.192.711.565,1.383,1.182,2.05,1.8a54.178,54.178,0,0,1,4.682,4.9,76.627,76.627,0,0,1,6.892,10.13c1.583,2.649,5.734.238,4.145-2.423Z"/><path class="a" d="M40.214,197.239h67.827a16.915,16.915,0,0,1,16.915,16.915v169.4a16.913,16.913,0,0,1-16.913,16.913H40.216A16.915,16.915,0,0,1,23.3,383.551v-169.4A16.913,16.913,0,0,1,40.214,197.239Z"/><path class="b" d="M108.041,398.065h-67.2a14.877,14.877,0,0,1-13.868-8.546c-1.9-4.12-1.272-9.46-1.272-13.9v-160.7A15.115,15.115,0,0,1,29.958,203.9a14.63,14.63,0,0,1,10.261-4.257c.611-.005,1.222,0,1.833,0h62c3.12,0,6.163-.161,9.159.943a14.676,14.676,0,0,1,9.343,13.746c.005,1.356,0,2.712,0,4.068v154.68c0,3.491.031,6.985,0,10.476a14.68,14.68,0,0,1-14.515,14.513c-3.086.032-3.094,4.832,0,4.8A19.5,19.5,0,0,0,127.1,386.594a35.861,35.861,0,0,0,.256-5.339V226.493c0-4.09.03-8.181,0-12.27a19.587,19.587,0,0,0-12.4-18.092c-3.464-1.368-7.021-1.292-10.65-1.292H41.837c-.714,0-1.43-.013-2.144.009a19.348,19.348,0,0,0-18.792,19.8q-.006,7.367,0,14.733V382.364a21.246,21.246,0,0,0,2.532,10.74,19.677,19.677,0,0,0,17.258,9.761q13.3.015,26.605,0h40.745C111.13,402.865,111.135,398.065,108.041,398.065Z"/><path class="b" d="M66.218,210.709q6.66,0,13.32-.007a2.4,2.4,0,0,0,0-4.8q-6.66,0-13.32.007a2.4,2.4,0,0,0,0,4.8Z"/><path class="b" d="M56.025,393.5q15.549,0,31.1-.006h5.108c3.089,0,3.094-4.8,0-4.8q-15.6,0-31.2.006H56.025c-3.089,0-3.094,4.8,0,4.8Z"/><path class="b" d="M87.27,210.709c3.088,0,3.094-4.8,0-4.8s-3.094,4.8,0,4.8Z"/><path class="a" d="M149.1,303.515q-.637-1-1.213-2.06c-3.618-6.645-5.567-14.987-7.054-22.252a27.214,27.214,0,0,0-1.986-7.066c-1.119-2.186-3.171-4.079-5.621-4.239-3.713-.243-6.477,3.347-8.023,6.733a41.453,41.453,0,0,0,1.991,37.653"/><path class="a" d="M18.131,359.89l-3.247-2.009c-2.445-1.513-4.986-3.122-6.437-5.6C6.327,348.652,7.165,343.71,10,340.61s6.986-4.943,10.866-3.335c1.9.786,6.086,4.207,8.055,6.206a19.006,19.006,0,0,1,5,8.033,8.445,8.445,0,0,1-2,8.366c-2.215,2.256-5.754,2.746-8.822,1.979A34.5,34.5,0,0,1,18.131,359.89Z"/><path class="b" d="M151.177,302.3c-3.519-5.609-5.387-12.044-6.877-18.444-.736-3.161-1.2-6.412-2.07-9.539-.858-3.088-2.506-6.123-5.384-7.752a8.105,8.105,0,0,0-8.7.463,16.47,16.47,0,0,0-5.345,7.134,43.81,43.81,0,0,0,2.321,39.329c1.557,2.666,5.707.253,4.145-2.422a39.265,39.265,0,0,1-3.243-32.011c1-2.99,3.924-10.743,8.395-8.348,2.338,1.252,3.071,4.191,3.585,6.57.6,2.755,1.113,5.524,1.761,8.269,1.567,6.64,3.612,13.354,7.263,19.173,1.638,2.611,5.793.2,4.145-2.422Z"/><path class="b" d="M19.342,357.817c-3.75-2.32-9.613-4.8-9.682-9.963-.058-4.217,3.575-8.523,7.9-8.766,1.949-.109,3.318.847,4.854,1.967a39.717,39.717,0,0,1,4.715,4.031c3.014,3.023,6.789,8.534,3.5,12.661-2.764,3.465-8.085,1.889-11.285.07-2.689-1.528-5.111,2.617-2.422,4.145,4.663,2.651,11.034,3.993,15.632.514a10.537,10.537,0,0,0,4.1-8.978,17.375,17.375,0,0,0-4.111-9.533,35.606,35.606,0,0,0-6.114-5.848c-2.247-1.761-4.474-3.405-7.392-3.752-6.347-.753-12.695,4.606-13.891,10.711a11.937,11.937,0,0,0,2.5,10.17c2.442,2.914,6.1,4.747,9.278,6.716C19.554,363.592,21.967,359.441,19.342,357.817Z"/><path class="b" d="M88.45,330.674H82.392a2.434,2.434,0,0,0-2.4,2.4V335.8a2.435,2.435,0,0,0,2.4,2.4H88.45a2.435,2.435,0,0,0,2.4-2.4v-2.725a2.4,2.4,0,1,0-4.8,0V335.8l2.4-2.4H82.392l2.4,2.4v-2.725l-2.4,2.4H88.45a2.4,2.4,0,0,0,0-4.8Z"/><path class="b" d="M58.084,292.367H51.7v6.389h6.388Z"/><path class="b" d="M96.561,292.367H90.173v6.389h6.388Z"/><path class="b" d="M58.084,329.927H51.7v6.388h6.388Z"/><path class="b" d="M58.084,289.967H51.7a2.435,2.435,0,0,0-2.4,2.4v6.389a2.435,2.435,0,0,0,2.4,2.4h6.388a2.435,2.435,0,0,0,2.4-2.4v-6.388a2.4,2.4,0,1,0-4.8,0v6.388l2.4-2.4H51.7l2.4,2.4v-6.389l-2.4,2.4h6.388a2.4,2.4,0,0,0,0-4.8Z"/><path class="b" d="M96.561,289.967H90.173a2.435,2.435,0,0,0-2.4,2.4v6.389a2.435,2.435,0,0,0,2.4,2.4h6.388a2.435,2.435,0,0,0,2.4-2.4v-6.388a2.4,2.4,0,1,0-4.8,0v6.388l2.4-2.4H90.173l2.4,2.4v-6.389l-2.4,2.4h6.388a2.4,2.4,0,0,0,0-4.8Z"/><path class="b" d="M58.084,327.527H51.7a2.434,2.434,0,0,0-2.4,2.4v6.388a2.435,2.435,0,0,0,2.4,2.4h6.388a2.435,2.435,0,0,0,2.4-2.4v-6.388a2.4,2.4,0,1,0-4.8,0v6.388l2.4-2.4H51.7l2.4,2.4v-6.388l-2.4,2.4h6.388a2.4,2.4,0,0,0,0-4.8Z"/><path class="b" d="M66.3,281.753H43.483a2.435,2.435,0,0,0-2.4,2.4v22.815a2.435,2.435,0,0,0,2.4,2.4H66.3a2.435,2.435,0,0,0,2.4-2.4V284.153c0-3.088-4.8-3.093-4.8,0v22.815l2.4-2.4H43.483l2.4,2.4V284.153l-2.4,2.4H66.3C69.386,286.553,69.391,281.753,66.3,281.753Z"/><path class="b" d="M71.709,284.153v22.815c0,3.089,4.8,3.094,4.8,0V284.153c0-3.088-4.8-3.094-4.8,0Z"/><path class="b" d="M66.3,311.84H43.483c-3.089,0-3.094,4.8,0,4.8H66.3c3.088,0,3.093-4.8,0-4.8Z"/><path class="b" d="M103.972,311.84h-12.5a2.4,2.4,0,0,0,0,4.8h12.5a2.4,2.4,0,0,0,0-4.8Z"/><path class="b" d="M73.763,316.64h11.07l-2.4-2.4v11.07a2.435,2.435,0,0,0,2.4,2.4H95.9l-2.4-2.4V336.4c0,3.088,4.8,3.093,4.8,0V325.31a2.435,2.435,0,0,0-2.4-2.4H84.833l2.4,2.4V314.24a2.435,2.435,0,0,0-2.4-2.4H73.763c-3.088,0-3.094,4.8,0,4.8Z"/><path class="b" d="M71.748,321.713v22.815a2.435,2.435,0,0,0,2.4,2.4h7.538c3.089,0,3.094-4.8,0-4.8H74.148l2.4,2.4V321.713c0-3.088-4.8-3.094-4.8,0Z"/><path class="b" d="M88.838,346.928h15.134a2.435,2.435,0,0,0,2.4-2.4V328.563a2.4,2.4,0,0,0-4.8,0v15.965l2.4-2.4H88.838a2.4,2.4,0,1,0,0,4.8Z"/><path class="b" d="M104.774,281.753H81.96a2.435,2.435,0,0,0-2.4,2.4v22.815a2.435,2.435,0,0,0,2.4,2.4h22.814a2.435,2.435,0,0,0,2.4-2.4q0-11.408,0-22.815c0-3.088-4.8-3.093-4.8,0q0,11.407,0,22.815l2.4-2.4H81.96l2.4,2.4V284.153l-2.4,2.4h22.814C107.863,286.553,107.868,281.753,104.774,281.753Z"/><path class="b" d="M95.9,314.343v3.619"/><path class="b" d="M93.5,314.343v3.619a2.479,2.479,0,0,0,.7,1.7,2.4,2.4,0,0,0,3.394,0,2.5,2.5,0,0,0,.7-1.7v-3.619a2.479,2.479,0,0,0-.7-1.7,2.4,2.4,0,0,0-3.394,0,2.5,2.5,0,0,0-.7,1.7Z"/><path class="b" d="M103.972,314.343v7.392"/><path class="b" d="M101.572,314.343v7.392a2.4,2.4,0,0,0,4.8,0v-7.392a2.4,2.4,0,1,0-4.8,0Z"/><path class="b" d="M66.3,319.313H43.483a2.435,2.435,0,0,0-2.4,2.4v22.815a2.435,2.435,0,0,0,2.4,2.4H66.3a2.435,2.435,0,0,0,2.4-2.4V321.713c0-3.088-4.8-3.093-4.8,0v22.815l2.4-2.4H43.483l2.4,2.4V321.713l-2.4,2.4H66.3C69.386,324.113,69.391,319.313,66.3,319.313Z"/><path class="b" d="M87.677,233.047H83.17v21.207h4.507C87.677,245.6,87.678,236.918,87.677,233.047Z"/><path class="b" d="M75.376,233.047H73v21.207h2.375C75.376,245.6,75.377,236.918,75.376,233.047Z"/><path class="b" d="M75.376,230.647q-1.187,0-2.375,0a2.435,2.435,0,0,0-2.4,2.4v21.207a2.435,2.435,0,0,0,2.4,2.4h2.375a2.435,2.435,0,0,0,2.4-2.4q0-10.6,0-21.207c0-3.088-4.8-3.093-4.8,0q0,10.6,0,21.207l2.4-2.4H73l2.4,2.4V233.047l-2.4,2.4q1.188,0,2.375,0C78.465,235.454,78.47,230.654,75.376,230.647Z"/><path class="b" d="M54.71,233.047H52.335v21.207H54.71Z"/><path class="b" d="M87.677,230.647q-2.253,0-4.507,0a2.436,2.436,0,0,0-2.4,2.4v21.207a2.435,2.435,0,0,0,2.4,2.4h4.507a2.435,2.435,0,0,0,2.4-2.4q0-10.6,0-21.207c0-3.088-4.8-3.093-4.8,0q0,10.6,0,21.207l2.4-2.4H83.17l2.4,2.4V233.047l-2.4,2.4q2.253,0,4.507,0C90.766,235.454,90.771,230.654,87.677,230.647Z"/><path class="b" d="M54.71,230.647q-1.188,0-2.375,0a2.435,2.435,0,0,0-2.4,2.4v21.207a2.435,2.435,0,0,0,2.4,2.4H54.71a2.435,2.435,0,0,0,2.4-2.4V233.047c0-3.088-4.8-3.093-4.8,0v21.207l2.4-2.4H52.335l2.4,2.4V233.047l-2.4,2.4q1.186,0,2.375,0C57.8,235.454,57.8,230.654,54.71,230.647Z"/><path class="b" d="M61.179,233.047v21.207c0,3.089,4.8,3.094,4.8,0V233.047c0-3.088-4.8-3.093-4.8,0Z"/><path class="b" d="M94.929,233.047v21.207c0,3.089,4.8,3.094,4.8,0V233.047c0-3.088-4.8-3.093-4.8,0Z"/><path class="b" d="M102.761,233.047v21.207c0,3.089,4.8,3.094,4.8,0V233.047c0-3.088-4.8-3.093-4.8,0Z"/><path class="b" d="M40.7,233.047v21.207c0,3.089,4.8,3.094,4.8,0V233.047c0-3.088-4.8-3.093-4.8,0Z"/><path class="c" d="M33.334,246.449h81.589c3.089,0,3.094-4.8,0-4.8H33.334c-3.089,0-3.094,4.8,0,4.8Z"/><path class="a" d="M38.03,175.29a12.374,12.374,0,0,1-12.339-12.2c-.193-13.354-.293-33.573.969-40.159C28.8,111.8,36.443,105.014,42.049,95.421c2.662-4.557,5.7-10.336,6.216-15.609.474-4.877.426-34.366.426-37.673,0-9.454-.049-16.936-.08-27.318A12.388,12.388,0,0,1,61.036,2.4c7.7.019,17.351.046,25.139.065A12.384,12.384,0,0,1,98.533,14.927C98.47,25.042,98.37,32.1,98.37,41.709c0,3.307.062,33.226.536,38.1.512,5.273,3.553,11.052,6.215,15.609,5.606,9.593,13.255,16.378,15.389,27.514,1.258,6.559,1.432,26.784,1.413,40.23a12.387,12.387,0,0,1-12.43,12.367C90.855,175.472,56.554,175.349,38.03,175.29Z"/><path class="d" d="M37.725,175.286a12.376,12.376,0,0,1-12.034-12.192c-.026-1.783-.05-3.688-.073-5.671,22.62-.011,74.176-.04,96.305-.052,0,2.025,0,3.972,0,5.794a12.387,12.387,0,0,1-12.43,12.367c-18.638-.06-52.939-.183-71.463-.242C37.928,175.29,37.826,175.289,37.725,175.286Z"/><path class="b" d="M38.03,172.89a10.077,10.077,0,0,1-8.661-5.084c-1.905-3.363-1.324-7.653-1.357-11.373-.076-8.518-.125-17.057.3-25.567.081-1.643.182-3.285.344-4.922q.045-.456.1-.91c.017-.15.13-.949.047-.393.124-.831.283-1.653.48-2.471a37.616,37.616,0,0,1,5.533-11.888C40.1,102.294,46.245,94.9,49.378,85.692c1.789-5.26,1.529-10.938,1.6-16.422.082-6.4.1-12.8.111-19.206q.012-8.347-.012-16.695-.021-7.594-.055-15.188c-.008-2.213-.191-4.426.5-6.559a9.984,9.984,0,0,1,2.766-4.236c3.1-2.866,6.954-2.59,10.888-2.58q7.872.021,15.744.042c4.008.01,8.175-.484,11.5,2.21a10.231,10.231,0,0,1,2.949,3.894c.883,2.067.769,4.206.753,6.4-.1,13.8-.18,27.6-.069,41.4.048,5.933.082,11.87.286,17.8a31.628,31.628,0,0,0,1.012,7.711,55.865,55.865,0,0,0,6.537,13.748c4.646,7.5,11.149,14.144,13.651,22.794a29.617,29.617,0,0,1,.723,3.095c.043.243.079.487.117.731.069.451.009.05,0-.036.029.215.055.431.08.646.177,1.514.294,3.034.394,4.554.266,4.049.393,8.107.487,12.163.1,4.461.154,8.924.177,13.386q.016,3.15.015,6.3a13.071,13.071,0,0,1-.8,5.475,10.168,10.168,0,0,1-7.836,5.933,37.692,37.692,0,0,1-5.1.062l-5.664-.019q-25.886-.087-51.772-.177l-10.32-.034c-3.089-.009-3.093,4.791,0,4.8q25.984.083,51.968.177l12.393.041c3.813.013,8.059.527,11.725-.7a14.981,14.981,0,0,0,9.106-8.5c1.642-3.982,1.11-8.58,1.09-12.794-.041-8.749-.094-17.523-.677-26.256a47.706,47.706,0,0,0-1.473-10.119,44.477,44.477,0,0,0-6.184-12.461c-2.65-3.909-5.578-7.626-8.056-11.651-2.638-4.287-5.2-8.9-6.311-13.848a32.815,32.815,0,0,1-.515-6.247c-.086-2.993-.131-5.986-.17-8.98q-.252-19.543-.088-39.09.031-3.9.064-7.807a35.911,35.911,0,0,0-.334-7.873,14.814,14.814,0,0,0-7.391-9.741C88.845-.471,83.906.056,79.164.043L63.069,0A20.357,20.357,0,0,0,56.4.728,15.191,15.191,0,0,0,50.774,4.1c-3.448,3.279-4.573,7.566-4.559,12.182.029,9,.071,17.991.076,26.986.007,11.386.15,22.8-.291,34.182-.315,8.14-4.937,15.586-9.482,22.1-5.144,7.379-11.016,14.61-12.349,23.808-1.123,7.754-.972,15.748-.991,23.563q-.016,6.729.077,13.456a25.656,25.656,0,0,0,.541,6.38A14.822,14.822,0,0,0,38.03,177.69C41.12,177.743,41.12,172.943,38.03,172.89Z"/><path class="b" d="M26.692,159.827q6.663,0,13.327-.007l23.117-.015,25.712-.017,21.464-.015,7,0c1.081,0,2.215.1,3.292,0a1.106,1.106,0,0,1,.141,0v-4.8h-.284c-3.088,0-3.093,4.8,0,4.8.095,0,.189,0,.284,0,3.091-.038,3.09-4.728,0-4.8-2.771-.064-5.552,0-8.323,0l-20.528.014L66.329,155l-23.734.016q-7.5,0-15.007.007h-.9c-3.088,0-3.093,4.8,0,4.8Z"/><path class="b" d="M71.284,139.445c0,2.083.129,4.165.132,6.248a2.4,2.4,0,1,0,4.8,0c0-2.083-.13-4.165-.132-6.248a2.4,2.4,0,0,0-4.8,0Z"/><path class="b" d="M135.078,173.906c1.756.385,3.482.952,5.207,1.458,1.591.467,3.19,1.023,4.816,1.361a2.4,2.4,0,0,0,1.276-4.629c-1.626-.338-3.225-.894-4.816-1.361-1.725-.506-3.451-1.072-5.207-1.458a2.4,2.4,0,0,0-1.276,4.629Z"/><path class="b" d="M126.579,182.109c2.323,2.991,4.869,5.807,7.3,8.714a2.409,2.409,0,0,0,3.394,0,2.465,2.465,0,0,0,0-3.394c-2.426-2.907-4.972-5.723-7.295-8.714a2.394,2.394,0,0,0-1.7-.7,2.445,2.445,0,0,0-1.7.7,2.418,2.418,0,0,0-.7,1.7,2.82,2.82,0,0,0,.7,1.7Z"/></svg>